<svg width="60" height="60" viewBox="0 0 60 60" fill="none" xmlns="http://www.w3.org/2000/svg">
<g clip-path="url(#clip0_2_118)">
<path d="M59.8125 23.4492C59.3437 21.6914 58.0781 20.3437 56.2734 19.6523L55.6055 19.3945L41.0977 19.3359L26.5898 19.2773L28.1367 17.6367C30.082 15.5625 30.4922 15.0469 30.9375 14.1328C31.6289 12.6562 31.8398 10.7109 31.4531 9.15234C31.0195 7.39453 29.7305 5.55469 28.5117 4.95703C27.9609 4.69922 27.6914 4.64062 27.0117 4.64062C25.5586 4.65234 25.6289 4.59375 19.6289 10.5352C6.83203 23.2148 4.28907 25.7695 3.67969 26.5664C-1.24218 33.0703 -1.19531 41.9414 3.79688 48.3281C5.41407 50.3906 7.96875 52.4648 10.2539 53.5547C12.2227 54.4922 14.3203 55.0781 16.6289 55.3008C18.293 55.4766 34.2891 55.4766 35.2266 55.3008C37.2656 54.9258 39.0234 53.3437 39.5508 51.3984C39.7031 50.8242 39.75 50.3672 39.7031 49.5703C39.6445 48.6562 39.5742 48.375 39.2344 47.6719C38.8828 46.9805 38.8477 46.8516 39.0117 46.793C39.8086 46.5352 40.8047 45.9375 41.3906 45.3398C43.043 43.6523 43.4063 41.2969 42.3281 39.1406C42.0938 38.6602 41.8828 38.2266 41.8594 38.1914C41.8477 38.1562 42.0234 38.0391 42.2461 37.9336C42.7734 37.6758 43.7461 36.7734 44.2031 36.1172C44.7891 35.2617 45.0352 34.418 45.0352 33.1641C45.0469 32.0508 45.0117 31.9219 44.332 30.3867C44.2852 30.2695 45.3984 30.2344 49.7109 30.2344C54.2109 30.2344 55.2656 30.1992 55.8398 30.0586C58.793 29.2852 60.5859 26.3086 59.8125 23.4492ZM57.1641 26.0977C57.0352 26.3789 56.7187 26.7891 56.4492 27.0117C55.5352 27.7969 55.8633 27.7734 44.918 27.7734C34.1836 27.7734 34.5469 27.75 34.2422 28.418C33.9492 29.0508 34.1367 29.7187 34.6875 30.0352C34.9688 30.1992 35.3906 30.2344 37.4648 30.2344C40.2188 30.2344 40.7813 30.3281 41.5195 30.9492C42.4688 31.7344 42.832 33.2812 42.3164 34.3945C42.0938 34.8984 41.3203 35.6719 40.8047 35.8945C40.5938 35.9883 39.2344 36.0469 36.5859 36.0937L32.6719 36.1523L32.332 36.5391C31.9336 36.9844 31.875 37.6289 32.1797 38.0742C32.5547 38.6016 32.9766 38.6719 35.6484 38.6719C38.0273 38.6719 38.168 38.6836 38.7422 38.9531C40.4648 39.75 40.9688 41.8828 39.7969 43.418C39.6445 43.6172 39.2344 43.9336 38.8945 44.1211L38.2617 44.4727L34.3828 44.5312C30.7617 44.5898 30.4805 44.6016 30.2461 44.8125C29.707 45.293 29.7422 46.2422 30.293 46.7344C30.5859 46.9805 30.6914 46.9922 32.5664 46.9922C34.9102 46.9922 35.5195 47.1328 36.2695 47.8242C36.9609 48.4687 37.3125 49.3008 37.2305 50.168C37.1367 51.2695 36.5391 52.125 35.5664 52.5703L34.9805 52.8516L25.8984 52.8516C16.2656 52.8516 15.8789 52.8281 13.8867 52.2773C9.66797 51.0937 5.82422 47.8594 3.9961 43.9336C2.95313 41.7187 2.55469 39.8672 2.54297 37.3828C2.54297 33.8437 3.63282 30.6797 5.83594 27.8555C6.12891 27.4805 10.9219 22.6758 16.4883 17.168C26.1328 7.61719 26.625 7.14844 27.0352 7.14844C27.3633 7.14844 27.5391 7.24219 27.8438 7.57031C29.1094 8.90625 29.4961 10.8984 28.8398 12.668C28.5 13.5469 28.3359 13.7578 25.6875 16.5703C22.4531 20.0039 22.3828 20.0859 22.3828 20.6133C22.3828 21.082 22.6055 21.4805 23.0039 21.7031C23.2031 21.8203 26.7305 21.8672 39.3867 21.9141L55.5117 21.9727L56.0859 22.3242C56.6836 22.6992 57.3633 23.6367 57.457 24.2461C57.5508 24.7617 57.4219 25.582 57.1641 26.0977Z" fill="#747474"/>
</g>
<defs>
<clipPath id="clip0_2_118">
<rect width="60" height="60" fill="white" transform="matrix(0 1 -1 0 60 0)"/>
</clipPath>
</defs>
</svg>
