<svg width="60" height="60" viewBox="0 0 60 60" fill="none" xmlns="http://www.w3.org/2000/svg">
<g clip-path="url(#clip0_2_91)">
<path d="M55.7461 0.164062C54.6914 0.539062 54.1524 1.25391 53.6016 2.94141L53.2852 3.96094L52.5938 4.14844C52.0547 4.30078 51.7734 4.46484 51.3399 4.89844L50.7774 5.46094L49.043 10.7578L47.2969 16.0547H26.3555C11.5078 16.0547 5.22658 16.0898 4.78126 16.1836C2.5547 16.6523 0.656263 18.5625 0.175794 20.8242C-0.0702995 21.9961 -0.0820182 54.0469 0.164076 55.207C0.609388 57.2695 2.05079 58.9102 4.10158 59.6602L4.86329 59.9414H30H55.1367L55.8984 59.6602C57.9492 58.9102 59.3906 57.2695 59.8359 55.207C60.082 54.0469 60.0703 21.9961 59.8242 20.8242C59.5781 19.6289 58.9336 18.5156 57.9844 17.6367L57.1875 16.8984L58.5352 12.7969C59.9531 8.49609 60.0469 8.03906 59.7188 7.125C59.6367 6.89062 59.4024 6.49219 59.2031 6.23438L58.8399 5.77734L59.2031 4.67578C59.6953 3.21094 59.6953 2.39062 59.2383 1.54688C58.5469 0.269531 57.082 -0.304688 55.7461 0.164062ZM57.3047 2.34375C57.668 2.70703 57.6094 3.26953 57.0117 4.88672C56.9766 4.99219 56.7656 4.95703 56.2266 4.78125C55.8164 4.65234 55.4414 4.48828 55.3828 4.44141C55.2188 4.30078 55.7461 2.70703 56.0508 2.36719C56.3555 2.03906 56.9766 2.01562 57.3047 2.34375ZM55.418 6.63281C56.5313 6.98438 57.5391 7.38281 57.668 7.51172C57.7852 7.62891 57.8906 7.875 57.8906 8.05078C57.8906 8.21484 56.1563 13.6406 54.0352 20.0859C51.9141 26.543 49.7695 33.0586 49.2774 34.5703L48.375 37.3242L47.2383 38.6719C46.6289 39.4102 46.0195 40.1133 45.9141 40.2188C45.6445 40.4883 45.1406 40.4883 44.332 40.2305C43.2774 39.9023 43.2422 39.8203 43.1016 37.5469L42.9727 35.5664L46.875 23.7305C49.0195 17.2148 51.1641 10.6758 51.6445 9.19922C52.125 7.71094 52.582 6.43359 52.6524 6.33984C52.7695 6.19922 53.1445 6 53.332 5.98828C53.3672 5.97656 54.3047 6.26953 55.418 6.63281ZM46.6055 18.1875C46.582 18.2695 46.4297 18.7266 46.2774 19.1836L46.0078 20.0391H26.3086H6.59767L6.09376 20.3086C5.7422 20.4961 5.49611 20.7422 5.30861 21.0938L5.03908 21.5977V38.0039C5.03908 54.1406 5.03908 54.4219 5.27345 54.8906C5.40236 55.1602 5.69533 55.5 5.94142 55.6641L6.37501 55.957L29.8594 55.9922C53.1211 56.0156 53.3672 56.0156 53.8359 55.7812C54.1055 55.6523 54.4453 55.3594 54.6094 55.1133L54.9024 54.6797L54.9609 39.0352L55.0195 23.3789L55.7695 21.1758L56.5078 18.9609L56.8594 19.3008C57.0469 19.4766 57.3633 19.9688 57.5742 20.3906L57.9492 21.1523V38.0273V54.9023L57.6328 55.5703C57.1992 56.4961 56.5078 57.2109 55.6289 57.6094L54.9024 57.9492H30H5.09767L4.31251 57.5625C3.41017 57.1172 2.78908 56.4844 2.35548 55.5586L2.05079 54.9023V38.0273V21.1523L2.37892 20.4492C2.89454 19.3477 3.77345 18.5508 4.83986 18.2109C5.5547 18 46.6992 17.9766 46.6055 18.1875ZM45.3164 22.1133C45.2813 22.1719 44.2969 25.1367 43.125 28.7109L40.9805 35.2148L41.1094 37.5352C41.2617 40.207 41.3555 40.5469 42.2461 41.3555L42.7969 41.8711L42.4922 42.8789C42.1055 44.1328 42.1055 44.3086 42.4922 44.6953C42.8438 45.0352 43.3945 45.0938 43.7578 44.8242C43.875 44.7305 44.1445 44.168 44.3555 43.5703L44.7305 42.4805L45.3985 42.457C46.5586 42.4102 46.9688 42.1172 48.6563 40.0898L50.1563 38.2852L51.5508 34.0547L52.9453 29.8242L52.957 41.918L52.9688 54.0234H30H7.03126V38.0273V22.0312H26.2031C36.7383 22.0312 45.3399 22.0664 45.3164 22.1133Z" fill="#747474"/>
<path d="M54.0703 9.46875C53.625 9.53907 53.4492 9.87891 52.7344 12.0234C52.0313 14.1211 51.9375 14.6016 52.1485 15C52.4297 15.5273 53.5195 15.5039 53.8125 14.9648C54.0235 14.5547 55.3125 10.6289 55.3125 10.3711C55.3125 9.83203 54.668 9.36328 54.0703 9.46875Z" fill="#747474"/>
<path d="M18.8555 28.2188C17.707 28.6055 16.9922 29.2266 16.3945 30.3516C16.1602 30.8086 16.1133 31.0781 16.0781 32.4258C16.0312 33.9492 16.0195 33.9844 15.7734 33.9844C15.3633 33.9844 14.2852 33.6328 13.7578 33.3281C13.1719 32.9883 12.7852 32.9766 12.375 33.293C11.9531 33.6211 11.9414 34.3359 12.3633 34.7578C12.8086 35.2031 13.8398 35.625 15.0117 35.8359L16.0547 36.0352L16.0312 39.0234L15.9961 42.0117L14.4141 42.0703C13.0078 42.1289 12.7734 42.1758 12.2461 42.4453C11.543 42.8203 10.793 43.5703 10.418 44.2969C10.1836 44.7422 10.1367 45 10.1367 45.9961C10.1367 47.4023 10.3828 48.0117 11.2734 48.8906C12.375 49.9687 14.2266 50.2969 15.5859 49.6758C17.3203 48.8789 18.0352 47.5312 18.0469 45.1523V44.0625L18.4336 44.1328C19.957 44.3906 21.5742 45.1289 22.6875 46.0547C24.2695 47.3906 24.8555 47.5898 25.8164 47.1211C26.25 46.9102 26.5664 46.5352 28.0547 44.4727C29.0039 43.1484 29.8125 42.0703 29.8594 42.0703C29.9062 42.082 30.0937 42.2695 30.2695 42.5156C30.75 43.1484 31.7109 43.8984 32.5312 44.2969C33.6562 44.8477 34.5352 45 36.5273 45C38.2266 45 38.3203 44.9883 38.625 44.7187C39.0469 44.3672 39.082 43.7109 38.6953 43.3242C38.4492 43.0781 38.2969 43.0664 36.4102 43.0078C34.4414 42.9492 34.3828 42.9375 33.5742 42.5625C32.9414 42.2578 32.543 41.9531 31.8047 41.1914C30.7852 40.1367 30.2578 39.8672 29.5078 40.0078C28.7578 40.1484 28.418 40.5 26.6719 42.9375L24.9375 45.3633L24.3867 44.8477C22.9922 43.5469 20.8945 42.5391 18.8437 42.1875L18.0469 42.0469V39.0234V36L19.6055 35.9531C20.9531 35.918 21.2344 35.8711 21.7383 35.625C22.5234 35.2383 23.2734 34.4648 23.6484 33.6562C24.0937 32.707 24.0937 31.3945 23.6484 30.4453C22.7812 28.5703 20.707 27.6094 18.8555 28.2188ZM20.8008 30.2227C21.9492 30.75 22.3359 32.0391 21.668 33.1289C21.2578 33.7852 20.707 33.9844 19.2773 33.9844H18.0469V32.7188C18.0469 31.6523 18.082 31.4062 18.293 31.0664C18.8789 30.0938 19.8281 29.7773 20.8008 30.2227ZM16.043 45.3281C15.9961 46.4766 15.9609 46.6523 15.668 47.0859C15.2695 47.707 14.7539 47.9766 13.9922 47.9766C12.0234 47.9883 11.332 45.457 12.9961 44.332C13.3477 44.0859 13.5352 44.0625 14.7422 44.0625H16.0781L16.043 45.3281Z" fill="#747474"/>
</g>
<defs>
<clipPath id="clip0_2_91">
<rect width="60" height="60" fill="white"/>
</clipPath>
</defs>
</svg>
